<?xml version="1.0" encoding="UTF-8" standalone="no"?>
<!DOCTYPE svg PUBLIC "-//W3C//DTD SVG 1.1//EN" "http://www.w3.org/Graphics/SVG/1.1/DTD/svg11.dtd">
<svg width="100%" height="100%" viewBox="0 0 591 591" version="1.1" xmlns="http://www.w3.org/2000/svg" xmlns:xlink="http://www.w3.org/1999/xlink" xml:space="preserve" xmlns:serif="http://www.serif.com/" style="fill-rule:evenodd;clip-rule:evenodd;stroke-linecap:round;stroke-linejoin:round;stroke-miterlimit:1.5;">
    <g transform="matrix(1,0,0,0.7,1.77636e-14,-70.8661)">
        <rect x="177.165" y="236.22" width="236.22" height="118.11" style="fill:white;stroke:white;stroke-width:48.27px;"/>
    </g>
    <g transform="matrix(1.33333,0,0,1.33333,-98.4252,27.5591)">
        <path d="M410.433,295.276L472.441,295.276L472.441,112.205L428.15,112.205L428.15,156.496L162.402,156.496L162.402,112.205L118.11,112.205L118.11,295.276L180.118,295.276" style="fill:none;stroke:white;stroke-width:31.25px;"/>
    </g>
    <g transform="matrix(1.3,0,0,1.3,-88.5827,47.2441)">
        <rect x="177.165" y="236.22" width="236.22" height="118.11" style="fill:none;stroke:white;stroke-width:32.05px;"/>
    </g>
    <g transform="matrix(1,0,0,1,-39.3701,-5.68434e-14)">
        <g transform="matrix(83.3333,0,0,83.3333,209.646,459.551)">
            <path d="M0.526,-0L0.088,-0L0.088,-0.73L0.526,-0.73L0.526,-0.622L0.211,-0.622L0.211,-0.431L0.491,-0.431L0.491,-0.323L0.211,-0.323L0.211,-0.108L0.526,-0.108L0.526,-0Z" style="fill:rgb(255,95,0);fill-rule:nonzero;"/>
        </g>
        <g transform="matrix(83.3333,0,0,83.3333,259.646,459.551)">
            <path d="M0.076,-0L0.076,-0.73L0.307,-0.73C0.355,-0.73 0.397,-0.721 0.434,-0.703C0.47,-0.685 0.498,-0.66 0.518,-0.627C0.537,-0.594 0.547,-0.556 0.547,-0.513C0.547,-0.465 0.535,-0.423 0.511,-0.386C0.487,-0.349 0.454,-0.323 0.412,-0.308L0.557,-0L0.417,-0L0.29,-0.29L0.201,-0.29L0.201,-0L0.076,-0ZM0.307,-0.399C0.342,-0.399 0.369,-0.409 0.39,-0.429C0.41,-0.448 0.42,-0.475 0.42,-0.509C0.42,-0.544 0.41,-0.571 0.39,-0.591C0.369,-0.611 0.342,-0.621 0.307,-0.621L0.201,-0.621L0.201,-0.399L0.307,-0.399Z" style="fill:rgb(255,95,0);fill-rule:nonzero;"/>
        </g>
        <g transform="matrix(83.3333,0,0,83.3333,309.646,459.551)">
            <path d="M0.076,-0L0.076,-0.73L0.307,-0.73C0.355,-0.73 0.397,-0.721 0.434,-0.703C0.47,-0.685 0.498,-0.66 0.518,-0.627C0.537,-0.594 0.547,-0.556 0.547,-0.513C0.547,-0.465 0.535,-0.423 0.511,-0.386C0.487,-0.349 0.454,-0.323 0.412,-0.308L0.557,-0L0.417,-0L0.29,-0.29L0.201,-0.29L0.201,-0L0.076,-0ZM0.307,-0.399C0.342,-0.399 0.369,-0.409 0.39,-0.429C0.41,-0.448 0.42,-0.475 0.42,-0.509C0.42,-0.544 0.41,-0.571 0.39,-0.591C0.369,-0.611 0.342,-0.621 0.307,-0.621L0.201,-0.621L0.201,-0.399L0.307,-0.399Z" style="fill:rgb(255,95,0);fill-rule:nonzero;"/>
        </g>
        <g transform="matrix(83.3333,0,0,83.3333,359.646,459.551)">
            <path d="M0.3,0.01C0.23,0.01 0.174,-0.01 0.134,-0.049C0.093,-0.087 0.072,-0.14 0.072,-0.206L0.072,-0.524C0.072,-0.59 0.093,-0.643 0.134,-0.682C0.174,-0.721 0.23,-0.74 0.3,-0.74C0.37,-0.74 0.426,-0.721 0.467,-0.682C0.507,-0.643 0.528,-0.59 0.528,-0.525L0.528,-0.206C0.528,-0.14 0.507,-0.087 0.467,-0.049C0.426,-0.01 0.37,0.01 0.3,0.01ZM0.3,-0.099C0.334,-0.099 0.36,-0.108 0.377,-0.127C0.394,-0.145 0.403,-0.171 0.403,-0.206L0.403,-0.524C0.403,-0.559 0.394,-0.585 0.377,-0.604C0.36,-0.622 0.334,-0.631 0.3,-0.631C0.266,-0.631 0.24,-0.622 0.223,-0.604C0.206,-0.585 0.197,-0.559 0.197,-0.524L0.197,-0.206C0.197,-0.171 0.206,-0.145 0.224,-0.127C0.241,-0.108 0.267,-0.099 0.3,-0.099Z" style="fill:rgb(255,95,0);fill-rule:nonzero;"/>
        </g>
        <g transform="matrix(83.3333,0,0,83.3333,409.646,459.551)">
            <path d="M0.076,-0L0.076,-0.73L0.307,-0.73C0.355,-0.73 0.397,-0.721 0.434,-0.703C0.47,-0.685 0.498,-0.66 0.518,-0.627C0.537,-0.594 0.547,-0.556 0.547,-0.513C0.547,-0.465 0.535,-0.423 0.511,-0.386C0.487,-0.349 0.454,-0.323 0.412,-0.308L0.557,-0L0.417,-0L0.29,-0.29L0.201,-0.29L0.201,-0L0.076,-0ZM0.307,-0.399C0.342,-0.399 0.369,-0.409 0.39,-0.429C0.41,-0.448 0.42,-0.475 0.42,-0.509C0.42,-0.544 0.41,-0.571 0.39,-0.591C0.369,-0.611 0.342,-0.621 0.307,-0.621L0.201,-0.621L0.201,-0.399L0.307,-0.399Z" style="fill:rgb(255,95,0);fill-rule:nonzero;"/>
        </g>
    </g>
</svg>
